<svg width="150" height="54" viewBox="0 0 150 54" fill="none" xmlns="http://www.w3.org/2000/svg">
<path d="M127.649 51.0313C127.649 47.7264 130.058 44.9815 130.058 41.6205C130.058 39.4919 129.61 37.3632 128.882 35.3466C127.257 30.8653 125.185 26.608 123.504 22.1827C122.776 20.2781 122.272 18.3175 122.272 16.3009C122.272 13.332 126.361 13.164 128.49 13.164C135.604 13.164 132.859 28.0084 136.22 28.0084C136.836 28.0084 137.172 27.3922 137.396 26.8881C137.732 26.0478 137.956 25.0395 138.124 24.1433C138.629 21.7906 138.965 19.2698 139.917 17.0291C140.309 16.0208 140.925 15.0685 141.71 14.2843C142.55 13.444 143.502 13.22 144.678 13.22C147.199 13.22 150 13.332 150 16.637C150 21.7906 140.981 45.0375 137.9 49.799C137.34 50.6392 136.724 51.4235 135.94 52.0396C134.539 53.216 133.363 53.048 131.626 53.048C130.282 53.048 127.649 52.8239 127.649 51.0313Z" fill="#4A200C"/>
<path d="M103.99 32.4898V37.3632C103.99 39.7159 102.253 40.6682 100.068 40.6682C97.9398 40.6682 95.195 40.3881 94.0186 38.3715C92.7302 36.1309 92.7302 27.8404 92.7302 24.9835C92.7302 22.2387 92.7302 14.0602 96.0912 13.22C97.6597 12.8278 99.2282 12.7718 100.853 12.7718C102.365 12.7718 103.99 13.444 103.99 15.1806C103.99 15.5167 103.934 15.8528 103.878 16.1889L104.27 16.525C107.631 14.9565 109.871 13.1079 113.793 13.1079C117.042 13.1079 116.649 17.5333 116.649 19.7179C116.649 20.2781 116.201 20.5022 115.697 20.5022C115.193 20.5022 114.745 20.3901 114.241 20.3901C109.143 20.3901 103.934 24.0312 103.934 29.4649C103.934 30.4732 103.99 31.4815 103.99 32.4898Z" fill="#4A200C"/>
<path d="M75.7178 22.1827C75.7178 20.2221 73.9812 19.2138 72.1887 19.2138C68.4356 19.2138 64.9065 20.3341 61.1534 20.3341C59.753 20.3341 59.977 19.1017 59.977 18.0934C59.977 17.1972 60.033 16.1328 60.3131 15.2926C61.2094 12.7158 69.892 12.0996 72.2447 12.0996C79.3028 12.0996 86.641 15.1245 86.641 23.247C86.641 26.3839 86.6971 29.4648 86.6971 32.6018C86.6971 37.3072 85.1286 40.6122 79.919 40.6122H78.1265C77.5663 40.6122 76.8381 40.6122 76.502 40.108C76.2779 39.7719 76.2779 38.5396 75.8858 38.5396C74.4854 38.5396 71.2364 41.2844 68.0434 41.2844C62.9459 41.2844 58.0724 37.1392 58.0724 31.8736C58.0724 30.081 58.5206 28.2885 59.809 27.0001C62.3857 24.4233 65.9148 23.5271 69.4439 23.191C70.4522 23.0789 74.8215 23.0229 75.3817 22.8549C75.6617 22.7428 75.7178 22.4627 75.7178 22.1827ZM67.6513 32.1537C67.6513 33.4981 69.1078 34.3943 70.3401 34.3943C72.9729 34.3943 75.8298 32.4898 75.8298 29.6329C75.8298 29.3528 75.7738 28.8487 75.4937 28.7366C75.1016 28.5686 73.6451 28.6246 73.141 28.6246C70.7323 28.6246 67.6513 29.1848 67.6513 32.1537Z" fill="#4A200C"/>
<path d="M40.3593 4.59338C40.3593 0.448136 42.712 0 46.2411 0C50.6664 0 51.3946 1.73652 51.3946 5.82575C51.3946 7.50626 49.6581 7.78634 48.3137 7.78634C46.185 7.78634 44.0004 7.73032 41.8717 7.73032C40.4153 7.73032 40.3593 5.6577 40.3593 4.59338ZM46.7452 12.4357C50.7224 12.4357 51.6747 15.9088 51.6747 19.2698C51.6747 22.1827 51.6187 25.1516 51.6187 28.0644C51.6187 32.8819 52.4029 40.6122 45.4568 40.6122C39.8551 40.6122 39.8551 31.0893 39.8551 27.2242C39.8551 25.5997 39.9672 24.0312 39.9672 22.4067C39.9672 16.693 39.519 12.4357 46.7452 12.4357Z" fill="#4A200C"/>
<path d="M13.9657 0.616188C25.5052 0.616188 34.5239 9.13075 34.5239 20.7822C34.5239 32.2097 25.2811 41.1164 13.9657 41.1164C11.0529 41.1164 7.41177 41.1164 4.66695 40.1081C-0.54262 38.2035 0.0175477 24.1993 0.0175477 19.6619C0.0175477 15.6847 0.0175473 4.14525 3.82669 1.90458C5.73127 0.784236 11.6691 0.616188 13.9657 0.616188ZM23.6006 19.942C23.6006 13.164 20.6878 9.01871 13.5736 9.01871C12.2852 9.01871 11.8371 9.74693 11.501 10.8673C11.3329 11.4274 11.2769 11.9316 11.2769 12.4918C11.2769 15.9648 11.1089 19.4939 11.1089 22.9669C11.1089 24.5354 10.9408 32.7138 13.1255 32.7138C21.64 32.7138 23.6006 27.4483 23.6006 19.942Z" fill="#4A200C"/>
</svg>
