<svg width="323" height="115" viewBox="0 0 323 115" fill="none" xmlns="http://www.w3.org/2000/svg">
<path d="M274.334 109.88C274.334 102.8 279.494 96.92 279.494 89.72C279.494 85.16 278.534 80.6 276.974 76.28C273.494 66.68 269.054 57.56 265.454 48.08C263.894 44 262.814 39.8 262.814 35.48C262.814 29.12 271.574 28.76 276.134 28.76C291.374 28.76 285.494 60.56 292.694 60.56C294.014 60.56 294.734 59.24 295.214 58.16C295.934 56.36 296.414 54.2 296.774 52.28C297.854 47.24 298.574 41.84 300.614 37.04C301.454 34.88 302.774 32.84 304.454 31.16C306.254 29.36 308.294 28.88 310.814 28.88C316.214 28.88 322.214 29.12 322.214 36.2C322.214 47.24 302.894 97.04 296.294 107.24C295.094 109.04 293.774 110.72 292.094 112.04C289.094 114.56 286.574 114.2 282.854 114.2C279.974 114.2 274.334 113.72 274.334 109.88Z" fill="black"/>
<path d="M223.65 70.16V80.6C223.65 85.64 219.93 87.68 215.25 87.68C210.69 87.68 204.81 87.08 202.29 82.76C199.53 77.96 199.53 60.2 199.53 54.08C199.53 48.2 199.53 30.68 206.73 28.88C210.09 28.04 213.45 27.92 216.93 27.92C220.17 27.92 223.65 29.36 223.65 33.08C223.65 33.8 223.53 34.52 223.41 35.24L224.25 35.96C231.45 32.6 236.25 28.64 244.65 28.64C251.61 28.64 250.77 38.12 250.77 42.8C250.77 44 249.81 44.48 248.73 44.48C247.65 44.48 246.69 44.24 245.61 44.24C234.69 44.24 223.53 52.04 223.53 63.68C223.53 65.84 223.65 68 223.65 70.16Z" fill="black"/>
<path d="M163.086 48.08C163.086 43.88 159.366 41.72 155.526 41.72C147.486 41.72 139.926 44.12 131.886 44.12C128.886 44.12 129.366 41.48 129.366 39.32C129.366 37.4 129.486 35.12 130.086 33.32C132.006 27.8 150.606 26.48 155.646 26.48C170.766 26.48 186.486 32.96 186.486 50.36C186.486 57.08 186.606 63.68 186.606 70.4C186.606 80.48 183.246 87.56 172.086 87.56H168.246C167.046 87.56 165.486 87.56 164.766 86.48C164.286 85.76 164.286 83.12 163.446 83.12C160.446 83.12 153.486 89 146.646 89C135.726 89 125.286 80.12 125.286 68.84C125.286 65 126.246 61.16 129.006 58.4C134.526 52.88 142.086 50.96 149.646 50.24C151.806 50 161.166 49.88 162.366 49.52C162.966 49.28 163.086 48.68 163.086 48.08ZM145.806 69.44C145.806 72.32 148.926 74.24 151.566 74.24C157.206 74.24 163.326 70.16 163.326 64.04C163.326 63.44 163.206 62.36 162.606 62.12C161.766 61.76 158.646 61.88 157.566 61.88C152.406 61.88 145.806 63.08 145.806 69.44Z" fill="black"/>
<path d="M87.3406 10.4C87.3406 1.52 92.3806 0.559998 99.9406 0.559998C109.421 0.559998 110.981 4.28 110.981 13.04C110.981 16.64 107.261 17.24 104.381 17.24C99.8206 17.24 95.1406 17.12 90.5806 17.12C87.4606 17.12 87.3406 12.68 87.3406 10.4ZM101.021 27.2C109.541 27.2 111.581 34.64 111.581 41.84C111.581 48.08 111.461 54.44 111.461 60.68C111.461 71 113.141 87.56 98.2606 87.56C86.2606 87.56 86.2606 67.16 86.2606 58.88C86.2606 55.4 86.5006 52.04 86.5006 48.56C86.5006 36.32 85.5406 27.2 101.021 27.2Z" fill="black"/>
<path d="M30.8 1.88C55.52 1.88 74.84 20.12 74.84 45.08C74.84 69.56 55.04 88.64 30.8 88.64C24.56 88.64 16.76 88.64 10.88 86.48C-0.279992 82.4 0.920007 52.4 0.920007 42.68C0.920007 34.16 0.920006 9.44 9.08001 4.64001C13.16 2.24 25.88 1.88 30.8 1.88ZM51.44 43.28C51.44 28.76 45.2 19.88 29.96 19.88C27.2 19.88 26.24 21.44 25.52 23.84C25.16 25.04 25.04 26.12 25.04 27.32C25.04 34.76 24.68 42.32 24.68 49.76C24.68 53.12 24.32 70.64 29 70.64C47.24 70.64 51.44 59.36 51.44 43.28Z" fill="black"/>
</svg>
